<svg width="1353" height="756" viewBox="0 0 1353 756" fill="none" xmlns="http://www.w3.org/2000/svg">
<g filter="url(#filter0_d_577_79)">
<path d="M145.256 336.4H227.176C243.816 336.4 257.384 350.096 257.384 366.736C257.384 383.376 243.816 396.944 227.176 396.944H204.136L220.904 426H196.712L179.944 396.944L167.784 376.08H227.176C232.296 376.08 236.52 371.856 236.52 366.736C236.52 361.616 232.296 357.392 227.176 357.392H157.032L145.256 336.784V336.4ZM266.51 357.392V336.4H365.07V357.392H266.51ZM266.51 426V405.136H365.07V426H266.51ZM266.51 391.696V370.832H365.07V391.696H266.51ZM406.456 336.4H475.832V357.392H406.456C401.976 357.392 398.136 361.232 398.136 365.712V396.816C398.136 401.296 401.976 405.136 406.456 405.136H475.832V426.128H406.456C390.328 426.128 377.272 412.944 377.272 396.816V365.712C377.272 349.584 390.328 336.4 406.456 336.4ZM599.15 397.712C599.15 405.776 596.334 412.56 590.702 417.936C584.942 423.312 578.03 426 569.966 426H517.23C509.166 426 502.254 423.312 496.494 417.936C490.862 412.56 488.046 405.776 488.046 397.712V336.4H508.91V397.712C508.91 402.704 511.726 405.136 517.23 405.136H569.966C575.47 405.136 578.286 402.704 578.286 397.712V336.4H599.15V397.712Z" fill="#1B4666"/>
</g>
<g filter="url(#filter1_d_577_79)">
<path d="M622.256 336.4H704.176C720.816 336.4 734.384 350.096 734.384 366.736C734.384 383.376 720.816 396.944 704.176 396.944H681.136L697.904 426H673.712L656.944 396.944L644.784 376.08H704.176C709.296 376.08 713.52 371.856 713.52 366.736C713.52 361.616 709.296 357.392 704.176 357.392H634.032L622.256 336.784V336.4ZM818.774 391.696H771.03C755.926 391.696 743.51 379.28 743.51 364.048C743.51 348.944 755.926 336.528 771.03 336.528H854.102V357.392H771.03C762.198 357.392 762.198 370.832 771.03 370.832H826.454C841.686 370.832 854.102 383.248 854.102 398.48C854.102 413.584 841.686 426 826.454 426H743.51V405.136H826.454C835.286 405.136 835.286 391.696 826.454 391.696H818.774ZM889.184 426H868.32V336.4H889.184V426ZM994.265 397.712V364.816C994.265 359.824 991.449 357.392 985.945 357.392H933.209C927.705 357.392 924.889 359.824 924.889 364.816V397.712C924.889 402.704 927.705 405.136 933.209 405.136H985.945C991.449 405.136 994.265 402.704 994.265 397.712ZM1015.13 364.816V397.712C1015.13 405.776 1012.31 412.56 1006.68 417.936C1000.92 423.312 994.009 426 985.945 426H933.209C925.145 426 918.233 423.312 912.473 417.936C906.841 412.56 904.025 405.776 904.025 397.712V364.816C904.025 356.752 906.841 349.968 912.473 344.592C918.233 339.216 925.145 336.4 933.209 336.4H985.945C994.009 336.4 1000.92 339.216 1006.68 344.592C1012.31 349.968 1015.13 356.752 1015.13 364.816ZM1125.56 336.4V426H1104.7L1050.81 365.712V426H1029.95V336.4H1050.81L1104.7 396.432V336.4H1125.56Z" fill="#3DE5FC"/>
</g>
<defs>
<filter id="filter0_d_577_79" x="141.256" y="336.4" width="461.895" height="97.7275" filterUnits="userSpaceOnUse" color-interpolation-filters="sRGB">
<feFlood flood-opacity="0" result="BackgroundImageFix"/>
<feColorMatrix in="SourceAlpha" type="matrix" values="0 0 0 0 0 0 0 0 0 0 0 0 0 0 0 0 0 0 127 0" result="hardAlpha"/>
<feOffset dy="4"/>
<feGaussianBlur stdDeviation="2"/>
<feComposite in2="hardAlpha" operator="out"/>
<feColorMatrix type="matrix" values="0 0 0 0 0.447014 0 0 0 0 0.582504 0 0 0 0 0.683333 0 0 0 1 0"/>
<feBlend mode="normal" in2="BackgroundImageFix" result="effect1_dropShadow_577_79"/>
<feBlend mode="normal" in="SourceGraphic" in2="effect1_dropShadow_577_79" result="shape"/>
</filter>
<filter id="filter1_d_577_79" x="618.256" y="336.4" width="511.305" height="97.5996" filterUnits="userSpaceOnUse" color-interpolation-filters="sRGB">
<feFlood flood-opacity="0" result="BackgroundImageFix"/>
<feColorMatrix in="SourceAlpha" type="matrix" values="0 0 0 0 0 0 0 0 0 0 0 0 0 0 0 0 0 0 127 0" result="hardAlpha"/>
<feOffset dy="4"/>
<feGaussianBlur stdDeviation="2"/>
<feComposite in2="hardAlpha" operator="out"/>
<feColorMatrix type="matrix" values="0 0 0 0 0.483333 0 0 0 0 0.937784 0 0 0 0 1 0 0 0 1 0"/>
<feBlend mode="normal" in2="BackgroundImageFix" result="effect1_dropShadow_577_79"/>
<feBlend mode="normal" in="SourceGraphic" in2="effect1_dropShadow_577_79" result="shape"/>
</filter>
</defs>
</svg>
